# xmcd CD database file
#
# Track frame offsets:
#	150
#	11282
#	21944
#	39870
#	49745
#	61201
#	75569
#	89554
#	103818
#	117075
#	133544
#	145251
#	155096
#	169851
#	183512
#
# Disc length: 2584 seconds
#
# Revision: 0
# Processed by: cddbd v1.5.2PL0 Copyright (c) Steve Scherf et al.
# Submitted via: CDex 1.70beta2
#
DISCID=c00a160f
DTITLE=Terri Taylor - The Cowgirl Way
DYEAR=2008
DGENRE=Country
TTITLE0=The Cowgirl Way
TTITLE1=Cowgirl Attitude
TTITLE2=Do You Miss Me?
TTITLE3=Wild, Wild Women Of The Wild, Wild West
TTITLE4=Queen of the Rodeo
TTITLE5=Rockin' In the Saddle
TTITLE6=I'd Rather Be A Cowgirl
TTITLE7=The West Is At Its Best In Wyoming
TTITLE8=Cowboys Are A Girls Best Friend
TTITLE9=Daddy Hold My Hand
TTITLE10=I've Just Got To Be A Cowgirl
TTITLE11=Cowboy Yodel
TTITLE12=The Wyoming Waltz
TTITLE13=Yodelin' 101
TTITLE14=Gasoline Blues
EXTD=YEAR: 2008
EXTT0=
EXTT1=
EXTT2=
EXTT3=
EXTT4=
EXTT5=
EXTT6=
EXTT7=
EXTT8=
EXTT9=
EXTT10=
EXTT11=
EXTT12=
EXTT13=
EXTT14=
PLAYORDER=
